{
  "accessors": [
    {
      "bufferView": 2,
      "componentType": 5126,
      "count": 51574,
      "max": [
        1.6327464580535889,
        9.0717487335205078,
        1.4660046100616455
      ],
      "min": [
        -1.6327464580535889,
        -8.4912471771240234,
        -4.4608163833618164
      ],
      "type": "VEC3"
    },
    {
      "bufferView": 2,
      "byteOffset": 618888,
      "componentType": 5126,
      "count": 51574,
      "max": [
        1,
        1,
        1
      ],
      "min": [
        -1,
        -1,
        -1
      ],
      "type": "VEC3"
    },
    {
      "bufferView": 1,
      "componentType": 5126,
      "count": 51574,
      "max": [
        1.287702202796936,
        1.2998385429382324
      ],
      "min": [
        -0.30344605445861816,
        -0.30964922904968262
      ],
      "type": "VEC2"
    },
    {
      "bufferView": 0,
      "componentType": 5125,
      "count": 304080,
      "max": [
        51573
      ],
      "min": [
        0
      ],
      "type": "SCALAR"
    },
    {
      "bufferView": 2,
      "byteOffset": 1237776,
      "componentType": 5126,
      "count": 1172,
      "max": [
        1.1056573390960693,
        -5.0481252670288086,
        -0.52827805280685425
      ],
      "min": [
        -1.1056573390960693,
        -5.2051315307617188,
        -0.68528378009796143
      ],
      "type": "VEC3"
    },
    {
      "bufferView": 2,
      "byteOffset": 1251840,
      "componentType": 5126,
      "count": 1172,
      "max": [
        1,
        1,
        1
      ],
      "min": [
        -1,
        -1,
        -1
      ],
      "type": "VEC3"
    },
    {
      "bufferView": 1,
      "byteOffset": 412592,
      "componentType": 5126,
      "count": 1172,
      "max": [
        0.023451553657650948,
        0.85825002193450928
      ],
      "min": [
        -0.22864466905593872,
        0.60412657260894775
      ],
      "type": "VEC2"
    },
    {
      "bufferView": 0,
      "byteOffset": 1216320,
      "componentType": 5125,
      "count": 6720,
      "max": [
        1171
      ],
      "min": [
        0
      ],
      "type": "SCALAR"
    },
    {
      "bufferView": 2,
      "byteOffset": 1265904,
      "componentType": 5126,
      "count": 1666,
      "max": [
        1.1050493717193604,
        -4.5435400009155273,
        -0.37436610460281372
      ],
      "min": [
        -1.1050493717193604,
        -4.794097900390625,
        -0.55830937623977661
      ],
      "type": "VEC3"
    },
    {
      "bufferView": 2,
      "byteOffset": 1285896,
      "componentType": 5126,
      "count": 1666,
      "max": [
        1,
        0.9995499849319458,
        0.9982638955116272
      ],
      "min": [
        -1,
        -0.99955081939697266,
        -0.9982638955116272
      ],
      "type": "VEC3"
    },
    {
      "bufferView": 1,
      "byteOffset": 421968,
      "componentType": 5126,
      "count": 1666,
      "max": [
        0.72376465797424316,
        0.50993931293487549
      ],
      "min": [
        0.27618861198425293,
        0.19957245886325836
      ],
      "type": "VEC2"
    },
    {
      "bufferView": 1,
      "byteOffset": 435296,
      "componentType": 5126,
      "count": 1666,
      "max": [
        0.72376465797424316,
        0.50993931293487549
      ],
      "min": [
        0.27618861198425293,
        0.19957245886325836
      ],
      "type": "VEC2"
    },
    {
      "bufferView": 0,
      "byteOffset": 1243200,
      "componentType": 5125,
      "count": 9792,
      "max": [
        1665
      ],
      "min": [
        0
      ],
      "type": "SCALAR"
    },
    {
      "bufferView": 2,
      "byteOffset": 1305888,
      "componentType": 5126,
      "count": 11980,
      "max": [
        0.25572887063026428,
        -0.56955301761627197,
        0.43499881029129028
      ],
      "min": [
        -0.25572887063026428,
        -1.5573481321334839,
        -0.86163818836212158
      ],
      "type": "VEC3"
    },
    {
      "bufferView": 2,
      "byteOffset": 1449648,
      "componentType": 5126,
      "count": 11980,
      "max": [
        0.99999117851257324,
        1,
        1
      ],
      "min": [
        -0.99999117851257324,
        -0.99999570846557617,
        -1
      ],
      "type": "VEC3"
    },
    {
      "bufferView": 1,
      "byteOffset": 448624,
      "componentType": 5126,
      "count": 11980,
      "max": [
        0.95043039321899414,
        0.99928992986679077
      ],
      "min": [
        0.012931997887790203,
        0.00021642912179231644
      ],
      "type": "VEC2"
    },
    {
      "bufferView": 0,
      "byteOffset": 1282368,
      "componentType": 5125,
      "count": 66720,
      "max": [
        11979
      ],
      "min": [
        0
      ],
      "type": "SCALAR"
    },
    {
      "bufferView": 2,
      "byteOffset": 1593408,
      "componentType": 5126,
      "count": 3513,
      "max": [
        1.0103847980499268,
        -3.1349632740020752,
        -8.962799072265625
      ],
      "min": [
        -1.0103847980499268,
        -6.9365596771240234,
        -9.4264612197875977
      ],
      "type": "VEC3"
    },
    {
      "bufferView": 2,
      "byteOffset": 1635564,
      "componentType": 5126,
      "count": 3513,
      "max": [
        1,
        1,
        0.99978673458099365
      ],
      "min": [
        -1,
        -1,
        -1
      ],
      "type": "VEC3"
    },
    {
      "bufferView": 1,
      "byteOffset": 544464,
      "componentType": 5126,
      "count": 3513,
      "max": [
        0,
        0
      ],
      "min": [
        0,
        0
      ],
      "type": "VEC2"
    },
    {
      "bufferView": 0,
      "byteOffset": 1549248,
      "componentType": 5125,
      "count": 20736,
      "max": [
        3512
      ],
      "min": [
        0
      ],
      "type": "SCALAR"
    },
    {
      "bufferView": 2,
      "byteOffset": 1677720,
      "componentType": 5126,
      "count": 65532,
      "max": [
        1.1765179634094238,
        9.4958620071411133,
        1.073398232460022
      ],
      "min": [
        -1.1724576950073242,
        -9.206385612487793,
        -8.7216949462890625
      ],
      "type": "VEC3"
    },
    {
      "bufferView": 2,
      "byteOffset": 2464104,
      "componentType": 5126,
      "count": 65532,
      "max": [
        1,
        1,
        1
      ],
      "min": [
        -1,
        -1,
        -1
      ],
      "type": "VEC3"
    },
    {
      "bufferView": 1,
      "byteOffset": 572568,
      "componentType": 5126,
      "count": 65532,
      "max": [
        0.99509739875793457,
        0.97112607955932617
      ],
      "min": [
        0.0026916805654764175,
        -0.17229586839675903
      ],
      "type": "VEC2"
    },
    {
      "bufferView": 1,
      "byteOffset": 1096824,
      "componentType": 5126,
      "count": 65532,
      "max": [
        0.99509739875793457,
        0.97112607955932617
      ],
      "min": [
        0.0026916805654764175,
        -0.17229586839675903
      ],
      "type": "VEC2"
    },
    {
      "bufferView": 0,
      "byteOffset": 1632192,
      "componentType": 5125,
      "count": 363507,
      "max": [
        65531
      ],
      "min": [
        0
      ],
      "type": "SCALAR"
    },
    {
      "bufferView": 2,
      "byteOffset": 3250488,
      "componentType": 5126,
      "count": 35926,
      "max": [
        1.1765179634094238,
        9.4958620071411133,
        1.0733981132507324
      ],
      "min": [
        -1.1765179634094238,
        -9.2046089172363281,
        -8.7216949462890625
      ],
      "type": "VEC3"
    },
    {
      "bufferView": 2,
      "byteOffset": 3681600,
      "componentType": 5126,
      "count": 35926,
      "max": [
        1,
        1,
        1
      ],
      "min": [
        -1,
        -0.99998199939727783,
        -1
      ],
      "type": "VEC3"
    },
    {
      "bufferView": 1,
      "byteOffset": 1621080,
      "componentType": 5126,
      "count": 35926,
      "max": [
        0.99486148357391357,
        1.0682612657546997
      ],
      "min": [
        0.0048088319599628448,
        -0.17251324653625488
      ],
      "type": "VEC2"
    },
    {
      "bufferView": 1,
      "byteOffset": 1908488,
      "componentType": 5126,
      "count": 35926,
      "max": [
        0.99486148357391357,
        1.0682612657546997
      ],
      "min": [
        0.0048088319599628448,
        -0.17251324653625488
      ],
      "type": "VEC2"
    },
    {
      "bufferView": 0,
      "byteOffset": 3086220,
      "componentType": 5125,
      "count": 190509,
      "max": [
        35925
      ],
      "min": [
        0
      ],
      "type": "SCALAR"
    },
    {
      "bufferView": 2,
      "byteOffset": 4112712,
      "componentType": 5126,
      "count": 12885,
      "max": [
        0.7513653039932251,
        9.4530658721923828,
        0.7339329719543457
      ],
      "min": [
        -0.7513653039932251,
        -0.63703459501266479,
        -0.40246003866195679
      ],
      "type": "VEC3"
    },
    {
      "bufferView": 2,
      "byteOffset": 4267332,
      "componentType": 5126,
      "count": 12885,
      "max": [
        1,
        1,
        1
      ],
      "min": [
        -1,
        -1,
        -1
      ],
      "type": "VEC3"
    },
    {
      "bufferView": 1,
      "byteOffset": 2195896,
      "componentType": 5126,
      "count": 12885,
      "max": [
        3.966672420501709,
        0.66232132911682129
      ],
      "min": [
        -2.961613655090332,
        -0.49467062950134277
      ],
      "type": "VEC2"
    },
    {
      "bufferView": 0,
      "byteOffset": 3848256,
      "componentType": 5125,
      "count": 75264,
      "max": [
        12884
      ],
      "min": [
        0
      ],
      "type": "SCALAR"
    },
    {
      "bufferView": 2,
      "byteOffset": 4421952,
      "componentType": 5126,
      "count": 59424,
      "max": [
        1.1721494197845459,
        9.4986724853515625,
        0.9746861457824707
      ],
      "min": [
        -1.1721494197845459,
        -9.4908885955810547,
        -9.2271270751953125
      ],
      "type": "VEC3"
    },
    {
      "bufferView": 2,
      "byteOffset": 5135040,
      "componentType": 5126,
      "count": 59424,
      "max": [
        1,
        1,
        1
      ],
      "min": [
        -1,
        -1,
        -1
      ],
      "type": "VEC3"
    },
    {
      "bufferView": 1,
      "byteOffset": 2298976,
      "componentType": 5126,
      "count": 59424,
      "max": [
        1.7779422998428345,
        1.32224440574646
      ],
      "min": [
        -0.36185383796691895,
        -0.32087090611457825
      ],
      "type": "VEC2"
    },
    {
      "bufferView": 1,
      "byteOffset": 2774368,
      "componentType": 5126,
      "count": 59424,
      "max": [
        1.7779422998428345,
        1.32224440574646
      ],
      "min": [
        -0.36185383796691895,
        -0.32087090611457825
      ],
      "type": "VEC2"
    },
    {
      "bufferView": 0,
      "byteOffset": 4149312,
      "componentType": 5125,
      "count": 341760,
      "max": [
        59423
      ],
      "min": [
        0
      ],
      "type": "SCALAR"
    }
  ],
  "asset": {
    "extras": {
      "author": "attix84work (https://sketchfab.com/attix84work)",
      "license": "CC-BY-4.0 (http://creativecommons.org/licenses/by/4.0/)",
      "source": "https://sketchfab.com/3d-models/desert-eagle-gun-1605b6c38826433fb3fe564e1d043199",
      "title": "Desert Eagle Gun"
    },
    "generator": "Sketchfab-8.77.2",
    "version": "2.0"
  },
  "bufferViews": [
    {
      "buffer": 0,
      "byteLength": 5516352,
      "byteOffset": 0,
      "name": "floatBufferViews",
      "target": 34963
    },
    {
      "buffer": 0,
      "byteLength": 3249760,
      "byteOffset": 5516352,
      "byteStride": 8,
      "name": "floatBufferViews",
      "target": 34962
    },
    {
      "buffer": 0,
      "byteLength": 5848128,
      "byteOffset": 8766112,
      "byteStride": 12,
      "name": "floatBufferViews",
      "target": 34962
    }
  ],
  "buffers": [
    {
      "byteLength": 14614240,
      "uri": "scene.bin"
    }
  ],
  "images": [
    {
      "uri": "textures/Black_Metal_metallicRoughness.png"
    },
    {
      "uri": "textures/Metal_Brushed_baseColor.jpeg"
    },
    {
      "uri": "textures/Metal_Cast_baseColor.jpeg"
    }
  ],
  "materials": [
    {
      "doubleSided": true,
      "emissiveFactor": [
        0,
        0,
        0
      ],
      "name": "Black_Metal",
      "pbrMetallicRoughness": {
        "baseColorFactor": [
          0.018847200000000001,
          0.018847200000000001,
          0.018847200000000001,
          1
        ],
        "metallicFactor": 0.97453775483525773,
        "metallicRoughnessTexture": {
          "index": 0,
          "texCoord": 0
        },
        "roughnessFactor": 0.34827991901209349
      }
    },
    {
      "doubleSided": true,
      "emissiveFactor": [
        0,
        0,
        0
      ],
      "name": "Red_Metal",
      "pbrMetallicRoughness": {
        "baseColorFactor": [
          0.80000099999999974,
          0.00279949,
          0.003733040000000003,
          1
        ],
        "metallicFactor": 1,
        "roughnessFactor": 0.20786744006469304
      }
    },
    {
      "doubleSided": true,
      "emissiveFactor": [
        0,
        0,
        0
      ],
      "name": "Metal_Brushed",
      "pbrMetallicRoughness": {
        "baseColorFactor": [
          0.84685411840529223,
          0.84685411840529223,
          0.84685411840529223,
          1
        ],
        "baseColorTexture": {
          "index": 1,
          "texCoord": 0
        },
        "metallicFactor": 0.84999999999999998,
        "metallicRoughnessTexture": {
          "index": 0,
          "texCoord": 0
        },
        "roughnessFactor": 0.21451610941879626
      }
    },
    {
      "doubleSided": true,
      "emissiveFactor": [
        0,
        0,
        0
      ],
      "name": "Black_Plastic",
      "pbrMetallicRoughness": {
        "baseColorFactor": [
          0.0047769600000000002,
          0.0047769600000000002,
          0.0047769600000000002,
          1
        ],
        "metallicFactor": 0,
        "metallicRoughnessTexture": {
          "index": 0,
          "texCoord": 0
        },
        "roughnessFactor": 0.59756701870869289
      }
    },
    {
      "doubleSided": true,
      "emissiveFactor": [
        0,
        0,
        0
      ],
      "name": "Black_Paint",
      "pbrMetallicRoughness": {
        "baseColorFactor": [
          0,
          0,
          0,
          1
        ],
        "metallicFactor": 0,
        "roughnessFactor": 0.39027263496464382
      }
    },
    {
      "doubleSided": true,
      "emissiveFactor": [
        0,
        0,
        0
      ],
      "name": "Bullet_Hole",
      "pbrMetallicRoughness": {
        "baseColorFactor": [
          0,
          0,
          0,
          1
        ],
        "metallicFactor": 0,
        "roughnessFactor": 0.82394172574614266
      }
    },
    {
      "doubleSided": true,
      "emissiveFactor": [
        0,
        0,
        0
      ],
      "name": "Metal_Cast",
      "pbrMetallicRoughness": {
        "baseColorFactor": [
          1,
          1,
          1,
          1
        ],
        "baseColorTexture": {
          "index": 2,
          "texCoord": 0
        },
        "metallicFactor": 0.84999999999999998,
        "metallicRoughnessTexture": {
          "index": 0,
          "texCoord": 0
        },
        "roughnessFactor": 0.83469377207862883
      }
    }
  ],
  "meshes": [
    {
      "name": "Gun_Metal_Parts_Black_Metal_0",
      "primitives": [
        {
          "attributes": {
            "NORMAL": 1,
            "POSITION": 0,
            "TEXCOORD_0": 2
          },
          "indices": 3,
          "material": 0,
          "mode": 4
        }
      ]
    },
    {
      "name": "Gun_Metal_Parts_Red_Metal_0",
      "primitives": [
        {
          "attributes": {
            "NORMAL": 5,
            "POSITION": 4,
            "TEXCOORD_0": 6
          },
          "indices": 7,
          "material": 1,
          "mode": 4
        }
      ]
    },
    {
      "name": "Gun_Metal_Parts_Metal_Brushed_0",
      "primitives": [
        {
          "attributes": {
            "NORMAL": 9,
            "POSITION": 8,
            "TEXCOORD_0": 10,
            "TEXCOORD_1": 11
          },
          "indices": 12,
          "material": 2,
          "mode": 4
        }
      ]
    },
    {
      "name": "Handle_Black_Plastic_0",
      "primitives": [
        {
          "attributes": {
            "NORMAL": 14,
            "POSITION": 13,
            "TEXCOORD_0": 15
          },
          "indices": 16,
          "material": 3,
          "mode": 4
        }
      ]
    },
    {
      "name": "Gun__Metal_Body_Black_Paint_0",
      "primitives": [
        {
          "attributes": {
            "NORMAL": 18,
            "POSITION": 17,
            "TEXCOORD_0": 19
          },
          "indices": 20,
          "material": 4,
          "mode": 4
        }
      ]
    },
    {
      "name": "Gun__Metal_Body_Metal_Brushed_0",
      "primitives": [
        {
          "attributes": {
            "NORMAL": 22,
            "POSITION": 21,
            "TEXCOORD_0": 23,
            "TEXCOORD_1": 24
          },
          "indices": 25,
          "material": 2,
          "mode": 4
        }
      ]
    },
    {
      "name": "Gun__Metal_Body_Metal_Brushed_0",
      "primitives": [
        {
          "attributes": {
            "NORMAL": 27,
            "POSITION": 26,
            "TEXCOORD_0": 28,
            "TEXCOORD_1": 29
          },
          "indices": 30,
          "material": 2,
          "mode": 4
        }
      ]
    },
    {
      "name": "Gun__Metal_Body_Bullet_Hole_0",
      "primitives": [
        {
          "attributes": {
            "NORMAL": 32,
            "POSITION": 31,
            "TEXCOORD_0": 33
          },
          "indices": 34,
          "material": 5,
          "mode": 4
        }
      ]
    },
    {
      "name": "Gun__Metal_Body_Metal_Cast_0",
      "primitives": [
        {
          "attributes": {
            "NORMAL": 36,
            "POSITION": 35,
            "TEXCOORD_0": 37,
            "TEXCOORD_1": 38
          },
          "indices": 39,
          "material": 6,
          "mode": 4
        }
      ]
    }
  ],
  "nodes": [
    {
      "children": [
        1
      ],
      "name": "RootNode (gltf orientation matrix)",
      "rotation": [
        -0.70710678118654746,
        -0,
        -0,
        0.70710678118654757
      ]
    },
    {
      "children": [
        2
      ],
      "name": "RootNode (model correction matrix)"
    },
    {
      "children": [
        3
      ],
      "matrix": [
        1,
        0,
        0,
        0,
        0,
        0,
        1,
        0,
        0,
        -1,
        0,
        0,
        0,
        0,
        0,
        1
      ],
      "name": "Desert_Eagle.fbx"
    },
    {
      "children": [
        4,
        8,
        10
      ],
      "name": "RootNode"
    },
    {
      "children": [
        5,
        6,
        7
      ],
      "matrix": [
        -19.184774398802254,
        2.349457358505147e-15,
        7.4708269848859755e-06,
        0,
        7.4708269848859551e-06,
        1.4484101756446369e-06,
        19.184774398802201,
        0,
        -5.6168228902275892e-13,
        19.184774398803654,
        -1.4484101735146991e-06,
        0,
        0,
        80.355491638183594,
        0,
        1
      ],
      "name": "Gun_Metal_Parts"
    },
    {
      "mesh": 0,
      "name": "Gun_Metal_Parts_Black_Metal_0"
    },
    {
      "mesh": 1,
      "name": "Gun_Metal_Parts_Red_Metal_0"
    },
    {
      "mesh": 2,
      "name": "Gun_Metal_Parts_Metal_Brushed_0"
    },
    {
      "children": [
        9
      ],
      "matrix": [
        -99.999999999992411,
        1.2246465878873718e-14,
        3.8941437775530106e-05,
        0,
        3.8941437775529998e-05,
        7.5497899820753389e-06,
        99.999999999992127,
        0,
        -2.9277502948264183e-12,
        99.999999999999702,
        -7.5497899709731087e-06,
        0,
        0,
        0,
        0,
        1
      ],
      "name": "Handle"
    },
    {
      "mesh": 3,
      "name": "Handle_Black_Plastic_0"
    },
    {
      "children": [
        11,
        12,
        13,
        14,
        15
      ],
      "matrix": [
        -19.184774398802254,
        2.349457358505147e-15,
        7.4708269848859755e-06,
        0,
        7.4708269848859551e-06,
        1.4484101756446369e-06,
        19.184774398802201,
        0,
        -5.6168228902275892e-13,
        19.184774398803654,
        -1.4484101735146991e-06,
        0,
        0,
        80.355491638183594,
        0,
        1
      ],
      "name": "Gun__Metal_Body"
    },
    {
      "mesh": 4,
      "name": "Gun__Metal_Body_Black_Paint_0"
    },
    {
      "mesh": 5,
      "name": "Gun__Metal_Body_Metal_Brushed_0"
    },
    {
      "mesh": 6,
      "name": "Gun__Metal_Body_Metal_Brushed_0"
    },
    {
      "mesh": 7,
      "name": "Gun__Metal_Body_Bullet_Hole_0"
    },
    {
      "mesh": 8,
      "name": "Gun__Metal_Body_Metal_Cast_0"
    }
  ],
  "samplers": [
    {
      "magFilter": 9729,
      "minFilter": 9987,
      "wrapS": 10497,
      "wrapT": 10497
    }
  ],
  "scene": 0,
  "scenes": [
    {
      "name": "OSG_Scene",
      "nodes": [
        0
      ]
    }
  ],
  "textures": [
    {
      "sampler": 0,
      "source": 0
    },
    {
      "sampler": 0,
      "source": 1
    },
    {
      "sampler": 0,
      "source": 2
    }
  ]
}

